<?xml version="1.0" encoding="UTF-8"?>
<svg id="Layer_1" xmlns="http://www.w3.org/2000/svg" version="1.1" viewBox="0 0 160 160">
  <!-- Generator: Adobe Illustrator 29.7.1, SVG Export Plug-In . SVG Version: 2.1.1 Build 8)  -->
  <defs>
    <style>
      .st0 {
        fill: none;
      }

      .st1 {
        stroke-width: .6px;
      }

      .st1, .st2, .st3 {
        stroke: #000;
        stroke-miterlimit: 10;
      }

      .st4 {
        fill: #d8d8d8;
      }

      .st5 {
        font-family: ArialMT, Arial;
        font-size: 12px;
      }

      .st5, .st6 {
        isolation: isolate;
      }

      .st2, .st3 {
        stroke-width: .5px;
      }

      .st7, .st3 {
        fill: #fff;
      }

      .st8 {
        fill: #f9f9f9;
      }

      .st6, .st9 {
        display: none;
      }
    </style>
  </defs>
  <g id="background">
    <rect class="st7" width="160" height="160"/>
  </g>
  <g id="Layer_11" data-name="Layer_1" class="st9">
    <g class="st6">
      <text class="st5" transform="translate(-666.8 -147.8)"><tspan x="0" y="0">The Cat Code</tspan></text>
    </g>
    <g class="st6">
      <text class="st5" transform="translate(-561.2 -147.8)"><tspan x="0" y="0">Whisker Wisdom</tspan></text>
    </g>
    <g class="st6">
      <text class="st5" transform="translate(-413.2 -147.8)"><tspan x="0" y="0">Tail Talk</tspan></text>
    </g>
    <g class="st6">
      <text class="st5" transform="translate(-307 -147.8)"><tspan x="0" y="0">Purrception</tspan></text>
    </g>
    <g class="st6">
      <text class="st5" transform="translate(-656.1 -104.3)"><tspan x="0" y="0">&lt;&gt;theCatCode&lt;/&gt;</tspan></text>
    </g>
    <g class="st6">
      <text class="st5" transform="translate(-653.3 -73.8)"><tspan x="0" y="0">{ CatCode }</tspan></text>
    </g>
    <rect x="-459.6" y="158.1" width="250" height="150"/>
    <rect class="st4" x="-447.8" y="5" width="250" height="150"/>
    <rect class="st7" x="-588.2" y="158.1" width="250" height="150"/>
    <path d="M-403.9,217.3c-.8-33.7,33.2-51.4,60.1-32v15.2c-18.2-19.3-57.2-12.7-58,16.4-1.2,34,43.1,39,60.2,15.4v16.6c-25.3,18.6-64.5,3.1-62.4-31.6h0Z"/>
    <path class="st7" d="M-334.6,217.3c-.8-33.7,33.2-51.4,60.1-32v15.2c-18.2-19.3-57.2-12.7-58,16.4-1.2,34,43.1,39,60.2,15.4v16.6c-25.3,18.6-64.5,3.1-62.4-31.6h0Z"/>
    <g>
      <path d="M-619.1,229.8c2.3-1.8,6.9,0,4.5,2.8-.8,1-1.6,2-2.4,3.1,2.2,5.2,3.4,33.7-7.2,26-3.4-9.4-1.4-20.9,3.4-29.6-13.1-28.7-30.9,6.3-32,22.4-1.8,17.5-1.4,46.3,19.5,51.5,6.6.8,12.3-3.4,16.1-8.4,7.9-2.6-8.9,13.2-17.5,10.1-25-6.3-30.3-41.8-23.7-63.2,3.4-19.2,26.9-39.2,39.2-14.7h.1ZM-618.7,238.3c-3.9,5.5-4.9,12.7-4.1,19.3.2,1.1.9,5.4,2.5,3.1,3-6.9,2.9-15.1,1.5-22.4h0Z"/>
      <path d="M-615.1,240.1c-.6.8-1.2,1.5-1.8,2.3,5.9,33.2-15.5,22.4-2.9-2.7-9.7-21.6-23.7,4.8-24.3,17-1.4,13.3-1.1,35.2,14.8,39.2,5,.6,9.3-2.6,12.2-6.4,6.1-1.8-7.6,10.2-13.3,7.7-19.1-5-23-31.5-18-48,2.3-14.5,20.8-29.7,29.8-11.2,1.8-1.3,5.3,0,3.5,2.1h0ZM-618.2,244.5c-3,4.2-3.8,9.7-3.1,14.7,0,.8.7,4.1,1.9,2.4,2.3-5.2,2.2-11.5,1.2-17.1h0Z"/>
    </g>
    <line class="st0" x1="-437.4" y1="21.3" x2="-437.3" y2="21.5"/>
    <g>
      <path d="M-487.8-76.5c-3.5,0-6.1-3.9-7.5-6.7s-2.8-7.9-2.7-12.1,1-6.9,3-9.8,4.3-4,7.2-4.5c7.7-1.4,13.5,4.5,15.7,11.4,1,3.3,1.3,7,.5,10.4s-2.4,6.2-3.9,9-4.4,7.5-6.6,11.2-3.9,6.2-5.4,9.5,3.8.6,4.4-.7c1.5-3.2,3.4-6.2,5.2-9.3s4.4-7.2,6.5-10.9,3.6-6.6,4.5-10.3.6-7.6-.5-11.1-3.5-7.3-6.7-9.6-7.6-3-11.7-2.3-8.6,2.6-11.7,5.8-4.3,6.3-4.8,10,.1,10.1,2.2,14.6,5,8.1,9.7,8.2,2.5-.5,3.3-1.4.4-1.3-.6-1.3h-.1Z"/>
      <g>
        <path d="M-485.9-53.3c2.3-1.8,6.9,0,4.5,2.8-.8,1-1.6,2-2.4,3.1,2.2,5.2,3.4,33.7-7.2,26-3.4-9.4-1.4-20.9,3.4-29.6-13.1-28.7-30.9,6.3-32,22.4-1.8,17.5-1.4,46.3,19.5,51.5,6.6.8,12.3-3.4,16.1-8.4,7.9-2.6-8.9,13.2-17.5,10.1-25-6.3-30.3-41.8-23.7-63.2,3.4-19.2,26.9-39.2,39.2-14.7h0ZM-485.5-44.8c-3.9,5.5-4.9,12.7-4.1,19.3.2,1.1.9,5.4,2.5,3.1,3-6.9,2.9-15.1,1.5-22.4h.1Z"/>
        <path d="M-483.3-42.9c-.6.8-1.2,1.5-1.8,2.3,5.9,33.2-15.5,22.4-2.9-2.7-9.7-21.6-23.7,4.8-24.3,17-1.4,13.3-1.1,35.2,14.8,39.2,5,.6,9.3-2.6,12.2-6.4,6.1-1.8-7.6,10.2-13.3,7.7-19.1-5-23-31.5-18-48,2.3-14.5,20.8-29.7,29.8-11.2,1.8-1.3,5.3,0,3.5,2.1ZM-486.4-38.6c-3,4.2-3.8,9.7-3.1,14.7.1.8.7,4.1,1.9,2.4,2.3-5.2,2.2-11.5,1.2-17.1Z"/>
      </g>
      <path d="M-492.9-55.4l-5.4,1.1c-.4,0-.7-.3-.6-.7l1.8-5.2c.1-.4.6-.5.9-.2l3.6,4.2c.3.3.1.8-.3.9h0Z"/>
      <path d="M-474.8-54l-5.5-.6c-.4,0-.6-.5-.4-.8l3.3-4.5c.2-.3.7-.3.9,0l2.3,5.1c.2.4-.1.8-.5.7h0Z"/>
      <g>
        <path d="M-499.2-29.9c-3.2.4-6.3.3-9.4-.4,3.2-.4,6.3-.3,9.4.4h0Z"/>
        <path d="M-506.6-34.2c3.7.2,7.3,1,10.8,2.5-3.7-.2-7.3-1-10.8-2.5h0Z"/>
        <path d="M-495.8-28.6c-3.3,1.7-6.9,2.8-10.6,3.2,3.3-1.7,6.9-2.8,10.6-3.2h0Z"/>
      </g>
      <g>
        <path d="M-476.4-30.5c3.1-.6,6.3-.8,9.4-.4-3.1.6-6.3.8-9.4.4h0Z"/>
        <path d="M-469-34.7c-3.4,1.5-7,2.4-10.8,2.5,3.4-1.5,7-2.4,10.8-2.5h0Z"/>
        <path d="M-479.8-29.1c3.7.4,7.3,1.5,10.6,3.2-3.7-.4-7.3-1.5-10.6-3.2h0Z"/>
      </g>
    </g>
    <g>
      <path d="M-598.8-10.2c-3.5,0-6.1-3.9-7.5-6.7s-2.8-7.9-2.7-12.1,1-6.9,3-9.8,4.3-4,7.2-4.5c7.7-1.4,13.5,4.5,15.7,11.4,1,3.3,1.3,7,.5,10.4s-2.4,6.2-3.9,9-4.4,7.5-6.6,11.2-3.9,6.2-5.4,9.5,3.8.6,4.4-.7c1.5-3.2,3.4-6.2,5.2-9.3s4.4-7.2,6.5-10.9,3.6-6.6,4.5-10.3.6-7.6-.5-11.1c-1.1-3.5-3.5-7.3-6.7-9.6s-7.6-3-11.7-2.3-8.6,2.6-11.7,5.8-4.3,6.3-4.8,10,0,10.1,2.2,14.6,5,8.1,9.7,8.2,2.5-.5,3.3-1.4.4-1.3-.6-1.3h-.1Z"/>
      <path d="M-598.7,10.9c2.3-1.8,6.9,0,4.5,2.8-.8,1-1.6,2-2.4,3.1,2.2,5.2,3.4,33.7-7.2,26-3.4-9.4-1.4-20.9,3.4-29.6-13.1-28.7-30.9,6.3-32,22.4-1.8,17.5-1.4,46.3,19.5,51.5,6.6.8,12.3-3.4,16.1-8.4,7.9-2.6-8.9,13.2-17.5,10.1-25-6.3-30.3-41.8-23.7-63.2,3.4-19.2,26.9-39.2,39.2-14.7h.1ZM-598.3,19.4c-3.9,5.5-4.9,12.7-4.1,19.3.2,1.1.9,5.4,2.5,3.1,3-6.9,2.9-15.1,1.5-22.4h0Z"/>
      <path d="M-596,21.3c-.6.8-1.2,1.5-1.8,2.3,5.9,33.2-15.5,22.4-2.9-2.7-9.7-21.6-23.7,4.8-24.3,17-1.4,13.3-1.1,35.2,14.8,39.2,5,.6,9.3-2.6,12.2-6.4,6.1-1.8-7.6,10.2-13.3,7.7-19.1-5-23-31.5-18-48,2.3-14.5,20.8-29.7,29.8-11.2,1.8-1.3,5.3,0,3.5,2.1ZM-599.2,25.6c-3,4.2-3.8,9.7-3.1,14.7,0,.8.7,4.1,1.9,2.4,2.3-5.2,2.2-11.5,1.2-17.1h0Z"/>
    </g>
    <g>
      <path d="M-605.6,50.1l-5.4,1.1c-.4,0-.7-.3-.6-.7l1.8-5.2c0-.4.6-.5.9-.2l3.6,4.2c.3.3,0,.8-.3.9h0Z"/>
      <path d="M-587.5,51.6l-5.5-.6c-.4,0-.6-.5-.4-.8l3.3-4.5c.2-.3.7-.3.9,0l2.3,5.1c.2.4,0,.8-.5.7h0Z"/>
      <g>
        <path d="M-611.9,65.6c-3.2.4-6.3.3-9.4-.4,3.2-.4,6.3-.3,9.4.4h0Z"/>
        <path d="M-619.3,61.3c3.7.2,7.3,1,10.8,2.5-3.7-.2-7.3-1-10.8-2.5h0Z"/>
        <path d="M-608.5,66.9c-3.3,1.7-6.9,2.8-10.6,3.2,3.3-1.7,6.9-2.8,10.6-3.2h0Z"/>
      </g>
      <g>
        <path d="M-589.1,65.1c3.1-.6,6.3-.8,9.4-.4-3.1.6-6.3.8-9.4.4h0Z"/>
        <path d="M-581.7,60.8c-3.4,1.5-7,2.4-10.8,2.5,3.4-1.5,7-2.4,10.8-2.5h0Z"/>
        <path d="M-592.5,66.4c3.7.4,7.3,1.5,10.6,3.2-3.7-.4-7.3-1.5-10.6-3.2h0Z"/>
      </g>
    </g>
    <g>
      <path d="M-268.8-112.1c-3.5,0-6.1-3.9-7.5-6.7s-2.8-7.9-2.7-12.1,1-6.9,3-9.8,4.3-4,7.2-4.5c7.7-1.4,13.5,4.5,15.7,11.4,1,3.3,1.3,7,.5,10.4s-2.4,6.2-3.9,9c-1.5,2.8-4.4,7.5-6.6,11.2s-3.9,6.2-5.4,9.5,3.8.6,4.4-.7c1.5-3.2,3.4-6.2,5.2-9.3s4.4-7.2,6.5-10.9,3.6-6.6,4.5-10.3c.9-3.7.6-7.6-.5-11.1s-3.5-7.3-6.7-9.6-7.6-3-11.7-2.3-8.6,2.6-11.7,5.8-4.3,6.3-4.8,10,.1,10.1,2.2,14.6,5,8.1,9.7,8.2,2.5-.5,3.3-1.4.4-1.3-.6-1.3h-.1Z"/>
      <path d="M-267-99.6c2.3-1.8,6.9,0,4.5,2.8-.8,1-1.6,2-2.4,3.1,2.2,5.2,3.4,33.7-7.2,26-3.4-9.4-1.4-20.9,3.4-29.6-13.1-28.7-30.9,6.3-32,22.4-1.8,17.5-1.4,46.3,19.5,51.5,6.6.8,12.3-3.4,16.1-8.4,7.9-2.6-8.9,13.2-17.5,10.1-25-6.3-30.3-41.8-23.7-63.2,3.4-19.2,26.9-39.2,39.2-14.7h.1ZM-266.6-91.1c-3.9,5.5-4.9,12.7-4.1,19.3.2,1.1.9,5.4,2.5,3.1,3-6.9,2.9-15.1,1.5-22.4h.1Z"/>
      <path d="M-264.3-89.2c-.6.8-1.2,1.5-1.8,2.3,5.9,33.2-15.5,22.4-2.9-2.7-9.7-21.6-23.7,4.8-24.3,17-1.4,13.3-1.1,35.2,14.8,39.2,5,.6,9.3-2.6,12.2-6.4,6.1-1.8-7.6,10.2-13.3,7.7-19.1-5-23-31.5-18-48,2.3-14.5,20.8-29.7,29.8-11.2,1.8-1.3,5.3,0,3.5,2.1h0ZM-267.5-84.9c-3,4.2-3.8,9.7-3.1,14.7.1.8.7,4.1,1.9,2.4,2.3-5.2,2.2-11.5,1.2-17.1Z"/>
    </g>
    <path class="st9" d="M-274.8-67.3l-5.4,1.1c-.4,0-.7-.3-.6-.7l1.8-5.2c.1-.4.6-.5.9-.2l3.6,4.2c.3.3.1.8-.3.9h0Z"/>
    <path class="st9" d="M-257.7-66.9l-5.5-.6c-.4,0-.6-.5-.4-.8l3.3-4.5c.2-.3.7-.3.9,0l2.3,5.1c.2.4-.1.8-.5.7h0Z"/>
    <path d="M-266.1-49.8l-4.4.2c-.3,0-.5-.3-.4-.6l2.1-3.9c.2-.3.6-.3.7,0l2.3,3.8c.2.3,0,.6-.3.6h0Z"/>
    <g>
      <path d="M-276.7-52.7c-3.2.4-6.3.3-9.4-.4,3.2-.4,6.3-.3,9.4.4h0Z"/>
      <path d="M-284.1-56.9c3.7.2,7.3,1,10.8,2.5-3.7-.2-7.3-1-10.8-2.5h0Z"/>
      <path d="M-273.3-51.3c-3.3,1.7-6.9,2.8-10.6,3.2,3.3-1.7,6.9-2.8,10.6-3.2h0Z"/>
    </g>
    <g>
      <path d="M-259.9-53.2c3.1-.6,6.3-.8,9.4-.4-3.1.6-6.3.8-9.4.4h0Z"/>
      <path d="M-252.5-57.5c-3.4,1.5-7,2.4-10.8,2.5,3.4-1.5,7-2.4,10.8-2.5h0Z"/>
      <path d="M-263.3-51.8c3.7.4,7.3,1.5,10.6,3.2-3.7-.4-7.3-1.5-10.6-3.2h0Z"/>
    </g>
    <g>
      <g class="st9">
        <path d="M-317.7,33.6c-3.5,0-6.1-3.9-7.5-6.7s-2.8-7.9-2.7-12.1,1-6.9,3-9.8,4.3-4,7.2-4.5c7.7-1.4,13.5,4.5,15.7,11.4,2.2,6.9,1.3,7,.5,10.4s-2.4,6.2-3.9,9-4.4,7.5-6.6,11.2-3.9,6.2-5.4,9.5,3.8.6,4.4-.7c1.5-3.2,3.4-6.2,5.2-9.3s4.4-7.2,6.5-10.9,3.6-6.6,4.5-10.3.6-7.6-.5-11.1-3.5-7.3-6.7-9.6-7.6-3-11.7-2.3-8.6,2.6-11.7,5.8c-3.1,3.2-4.3,6.3-4.8,10-.5,3.7.1,10.1,2.2,14.6,2.1,4.5,5,8.1,9.7,8.2s2.5-.5,3.3-1.4.4-1.3-.6-1.3h-.1Z"/>
      </g>
      <path class="st7" d="M-285.7,101.9c-9.6,7.3-26.5,10-37.7,4.2-2.2,1-4.4,1.8-6.9,2.3,13.4,13.7,37.6,13.5,52,2.8v-16.6c-2,2.7-4.5,5.2-7.4,7.3Z"/>
      <path class="st8" d="M-280.5,47.5v15.2c-37.7-34.1-82.7,16.4-42.8,43.3-2.2,1-4.4,1.8-6.9,2.3-29.6-35,7-90.1,49.7-60.9h0Z"/>
      <path d="M-315.7,101.9c-55.2,33.9-77.4-54.6-15.8-49.8,3.2-4,7.2-7.3,11.8-9.4-35.6-15.2-61.1,24.2-47.5,55.5,9.5,22.8,40.9,26.5,58.9,13v-16.6c-2,2.7-4.5,5.2-7.4,7.3ZM-310.5,62.7v-11.2c-4.2.3-8.2,1.4-11.9,3.2,4,1.8,8,4.4,11.9,7.9h0Z"/>
    </g>
    <g>
      <path d="M-315.7,70.7l-5.4,1.1c-.4,0-.7-.3-.6-.7l1.8-5.2c.1-.4.6-.5.9-.2l3.6,4.2c.3.3.1.8-.3.9h0Z"/>
      <path d="M-297.6,72.1l-5.5-.6c-.4,0-.6-.5-.4-.8l3.3-4.5c.2-.3.7-.3.9,0l2.3,5.1c.2.4-.1.8-.5.7h0Z"/>
      <g>
        <path d="M-322.1,92.2c-3.2.4-6.3.3-9.4-.4,3.2-.4,6.3-.3,9.4.4h0Z"/>
        <path d="M-329.4,87.9c3.7.2,7.3,1,10.8,2.5-3.7-.2-7.3-1-10.8-2.5h0Z"/>
        <path d="M-318.7,93.5c-3.3,1.7-6.9,2.8-10.6,3.2,3.3-1.7,6.9-2.8,10.6-3.2h0Z"/>
      </g>
      <g>
        <path d="M-299.2,91.6c3.1-.6,6.3-.8,9.4-.4-3.1.6-6.3.8-9.4.4h0Z"/>
        <path d="M-291.9,87.4c-3.4,1.5-7,2.4-10.8,2.5,3.4-1.5,7-2.4,10.8-2.5h0Z"/>
        <path d="M-302.6,93c3.7.4,7.3,1.5,10.6,3.2-3.7-.4-7.3-1.5-10.6-3.2h0Z"/>
      </g>
    </g>
    <g>
      <rect class="st4" x="-45" y="80" width="250" height="150"/>
      <line class="st0" x1="-34.7" y1="96.3" x2="-34.5" y2="96.5"/>
      <g>
        <g class="st9">
          <path d="M85,108.6c-3.5,0-6.1-3.9-7.5-6.7s-2.8-7.9-2.7-12.1,1-6.9,3-9.8,4.3-4,7.2-4.5c7.7-1.4,13.5,4.5,15.7,11.4s1.3,7,.5,10.4-2.4,6.2-3.9,9-4.4,7.5-6.6,11.2-3.9,6.2-5.4,9.5,3.8.6,4.4-.7c1.5-3.2,3.4-6.2,5.2-9.3s4.4-7.2,6.5-10.9,3.6-6.6,4.5-10.3.6-7.6-.5-11.1-3.5-7.3-6.7-9.6-7.6-3-11.7-2.3-8.6,2.6-11.7,5.8-4.3,6.3-4.8,10,0,10.1,2.2,14.6,5,8.1,9.7,8.2,2.5-.5,3.3-1.4.4-1.3-.6-1.3h0Z"/>
        </g>
        <path class="st7" d="M117.1,176.9c-9.6,7.3-26.5,10-37.7,4.2-2.2,1-4.4,1.8-6.9,2.3,13.4,13.7,37.6,13.5,52,2.8v-16.6c-2,2.7-4.5,5.2-7.4,7.3Z"/>
        <path class="st8" d="M122.2,122.5v15.2c-37.7-34.1-82.7,16.4-42.8,43.3-2.2,1-4.4,1.8-6.9,2.3-29.6-35,7-90.1,49.7-60.9h0Z"/>
        <path d="M87,176.9c-55.2,33.9-77.4-54.6-15.8-49.8,3.2-4,7.2-7.3,11.8-9.4-35.6-15.2-61.1,24.2-47.5,55.5,9.5,22.8,40.9,26.5,58.9,13v-16.6c-2,2.7-4.5,5.2-7.4,7.3h0ZM92.2,137.8v-11.2c-4.2.3-8.2,1.4-11.9,3.2,4,1.8,8,4.4,11.9,7.9h0Z"/>
      </g>
      <g>
        <path d="M87,145.7l-5.4,1.1c-.4,0-.7-.3-.6-.7l1.8-5.2c0-.4.6-.5.9-.2l3.6,4.2c.3.3,0,.8-.3.9h0Z"/>
        <path d="M105.1,147.2l-5.5-.6c-.4,0-.6-.5-.4-.8l3.3-4.5c.2-.3.7-.3.9,0l2.3,5.1c.2.4,0,.8-.5.7h-.1Z"/>
        <g>
          <path d="M80.7,167.2c-3.2.4-6.3.3-9.4-.4,3.2-.4,6.3-.3,9.4.4h0Z"/>
          <path d="M73.3,162.9c3.7.2,7.3,1,10.8,2.5-3.7-.2-7.3-1-10.8-2.5h0Z"/>
          <path d="M84.1,168.5c-3.3,1.7-6.9,2.8-10.6,3.2,3.3-1.7,6.9-2.8,10.6-3.2h0Z"/>
        </g>
        <g>
          <path d="M103.5,166.7c3.1-.6,6.3-.8,9.4-.4-3.1.6-6.3.8-9.4.4h0Z"/>
          <path d="M110.9,162.4c-3.4,1.5-7,2.4-10.8,2.5,3.4-1.5,7-2.4,10.8-2.5h0Z"/>
          <path d="M100.1,168c3.7.4,7.3,1.5,10.6,3.2-3.7-.4-7.3-1.5-10.6-3.2h0Z"/>
        </g>
      </g>
    </g>
  </g>
  <g id="Layer_2">
    <g>
      <rect class="st7" width="160" height="160"/>
      <g>
        <g>
          <path class="st1" d="M93.7,115.2l-4.8.2c-.3,0-.5-.3-.4-.7l2.3-4.3c.2-.3.7-.3.8,0l2.5,4.2c.2.3,0,.7-.3.7h0Z"/>
          <g>
            <path class="st1" d="M82.1,112.1c-3.5.4-6.9.3-10.3-.4,3.5-.4,6.9-.3,10.3.4Z"/>
            <path class="st1" d="M73.9,107.4c4.1.2,8,1.1,11.9,2.8-4.1-.2-8-1.1-11.9-2.8h0Z"/>
            <path class="st1" d="M85.8,113.5c-3.6,1.9-7.6,3.1-11.7,3.5,3.6-1.9,7.6-3.1,11.7-3.5Z"/>
          </g>
          <g>
            <path class="st1" d="M100.5,111.6c3.4-.7,6.9-.9,10.3-.4-3.4.7-6.9.9-10.3.4h0Z"/>
            <path class="st1" d="M108.7,106.8c-3.7,1.6-7.7,2.6-11.9,2.8,3.7-1.7,7.7-2.6,11.9-2.8Z"/>
            <path class="st1" d="M96.8,113c4.1.4,8,1.6,11.7,3.5-4.1-.4-8-1.6-11.7-3.5h0Z"/>
          </g>
        </g>
        <g>
          <path class="st2" d="M85.5,37.4c-.4,2.4-2.1,4.5-4.2,5.7,0,0-.7.4-.4.2-6,3.1-11.4-3-11.1-8.9,1.9-26.9,28.6-12.3,29.4,6.7,0,10.2-6.6,19-10.4,28.1-.8,1.8,3.8.6,4.4-.7,9.1-17.3,18.5-36-2-49.5-15.2-9.8-35.4,14-21.7,26.4,7.3,4.1,18.8-1.2,20.6-9.2.2-1.4-4.4,0-4.7,1.3h0Z"/>
          <path class="st2" d="M92.6,65.2c2.3-1.8,6.9,0,4.5,2.8-.8,1-1.6,2-2.4,3.1,2.2,5.2,4.4,33.7-6.2,26-3.4-9.4-2.4-20.9,2.4-29.6-13.1-28.7-30.9,6.3-32,22.4-1.8,17.5-1.4,46.3,19.5,51.5,6.6.8,12.3-3.4,16.1-8.4,7.9-2.6-8.9,13.2-17.5,10.1-25-6.3-30.3-41.8-23.7-63.2,3.4-19.2,26.9-39.2,39.2-14.7h0ZM93,73.6c-3.9,5.5-4.9,12.7-4.1,19.3.2,1.1.9,5.4,2.5,3.1,3-6.9,2.9-15.1,1.5-22.4h0Z"/>
          <path class="st2" d="M95.3,75.6c-.6.8-.2,1.5-.8,2.3,5.9,33.2-16.5,22.4-3.9-2.7-9.7-21.6-23.7,4.8-24.3,17-1.4,13.3-1.1,35.2,14.8,39.2,5,.6,9.3-2.6,12.2-6.4,6.1-1.8-7.6,10.2-13.3,7.7-19.1-5-23-31.5-18-48,2.3-14.5,20.8-29.7,29.8-11.2,1.8-1.3,5.3,0,3.5,2.1h0ZM92.1,79.9c-3,4.2-3.8,9.7-3.1,14.7,0,.8.7,4.1,1.9,2.4,2.3-5.2,2.2-11.5,1.2-17.1Z"/>
        </g>
      </g>
    </g>
    <g class="st9">
      <rect class="st2" width="160" height="160"/>
      <g>
        <g>
          <path class="st3" d="M93.5,114.9l-4.4.2c-.3,0-.5-.3-.4-.6l2.1-3.9c.2-.3.6-.3.7,0l2.3,3.8c.2.3,0,.6-.3.6h0Z"/>
          <g>
            <path class="st3" d="M82.9,112.1c-3.2.4-6.3.3-9.4-.4,3.2-.4,6.3-.3,9.4.4Z"/>
            <path class="st3" d="M75.5,107.8c3.7.2,7.3,1,10.8,2.5-3.7-.2-7.3-1-10.8-2.5h0Z"/>
            <path class="st3" d="M86.3,113.4c-3.3,1.7-6.9,2.8-10.6,3.2,3.3-1.7,6.9-2.8,10.6-3.2Z"/>
          </g>
          <g>
            <path class="st3" d="M99.7,111.6c3.1-.6,6.3-.8,9.4-.4-3.1.6-6.3.8-9.4.4h0Z"/>
            <path class="st3" d="M107.1,107.3c-3.4,1.5-7,2.4-10.8,2.5,3.4-1.5,7-2.4,10.8-2.5Z"/>
            <path class="st3" d="M96.3,112.9c3.7.4,7.3,1.5,10.6,3.2-3.7-.4-7.3-1.5-10.6-3.2h0Z"/>
          </g>
        </g>
        <g>
          <path class="st3" d="M85.5,37.4c-.3,2.2-1.9,4.2-3.7,5.4-.2,0-.3.2-.5.3,0,0-.7.4-.4.2-6,3.1-11.4-3-11.1-8.9,1.9-26.9,28.6-12.3,29.4,6.7,0,10.2-6.6,19-10.4,28.1-.8,1.8,3.8.6,4.4-.7,9.1-17.3,18.5-36-2-49.5-15.2-9.8-35.4,14-21.7,26.4,7.3,4.1,18.8-1.2,20.6-9.2.2-1.4-4.4,0-4.7,1.3h0Z"/>
          <path class="st3" d="M92.6,65.2c2.3-1.8,6.9,0,4.5,2.8-.8,1-1.6,2-2.4,3.1,2.2,5.2,4.4,33.7-6.2,26-3.4-9.4-2.4-20.9,2.4-29.6-13.1-28.7-30.9,6.3-32,22.4-1.8,17.5-1.4,46.3,19.5,51.5,6.6.8,12.3-3.4,16.1-8.4,7.9-2.6-8.9,13.2-17.5,10.1-25-6.3-30.3-41.8-23.7-63.2,3.4-19.2,26.9-39.2,39.2-14.7h0ZM93,73.6c-3.9,5.5-4.9,12.7-4.1,19.3.2,1.1.9,5.4,2.5,3.1,3-6.9,2.9-15.1,1.5-22.4h0Z"/>
          <path class="st3" d="M95.3,75.6c-.6.8-.2,1.5-.8,2.3,5.9,33.2-16.5,22.4-3.9-2.7-9.7-21.6-23.7,4.8-24.3,17-1.4,13.3-1.1,35.2,14.8,39.2,5,.6,9.3-2.6,12.2-6.4,6.1-1.8-7.6,10.2-13.3,7.7-19.1-5-23-31.5-18-48,2.3-14.5,20.8-29.7,29.8-11.2,1.8-1.3,5.3,0,3.5,2.1h0ZM92.1,79.9c-3,4.2-3.8,9.7-3.1,14.7,0,.8.7,4.1,1.9,2.4,2.3-5.2,2.2-11.5,1.2-17.1Z"/>
        </g>
      </g>
    </g>
    <g>
      <path class="st2" d="M-373.9-43.3l-4.4.2c-.3,0-.5-.3-.4-.6l2.1-3.9c.2-.3.6-.3.7,0l2.3,3.8c.2.3,0,.6-.3.6h0Z"/>
      <g>
        <path class="st2" d="M-384.5-46.2c-3.2.4-6.3.3-9.4-.4,3.2-.4,6.3-.3,9.4.4h0Z"/>
        <path class="st2" d="M-391.9-50.5c3.7.2,7.3,1,10.8,2.5-3.7-.2-7.3-1-10.8-2.5h0Z"/>
        <path class="st2" d="M-381.2-44.8c-3.3,1.7-6.9,2.8-10.6,3.2,3.3-1.7,6.9-2.8,10.6-3.2h0Z"/>
      </g>
      <g>
        <path class="st2" d="M-367.7-46.7c3.1-.6,6.3-.8,9.4-.4-3.1.6-6.3.8-9.4.4h0Z"/>
        <path class="st2" d="M-360.3-51c-3.4,1.5-7,2.4-10.8,2.5,3.4-1.5,7-2.4,10.8-2.5h0Z"/>
        <path class="st2" d="M-371.1-45.3c3.7.4,7.3,1.5,10.6,3.2-3.7-.4-7.3-1.5-10.6-3.2h0Z"/>
      </g>
    </g>
    <g>
      <path class="st2" d="M-380.7-109.5c-.2.2-.4.2-.4.4l.3-.2c-.2.2-.2,0,0,0s-.5,0,0,0c0,0-.4,0-.2,0h-1c-1.3,0-2.6-.6-3.7-1.2-2.7-1.5-4.8-4-5.5-7s-.3-7,.8-10.1c1.1-3.1,2.7-5.2,5.1-6.7s5.9-2.2,8.9-1.5,6,2.8,7.9,5.4c4.2,5.8,4.7,13,2.6,19.6-2.6,8.2-7,15.7-10.6,23.6s3.8.6,4.4-.7c3.5-7.9,8-15.5,10.7-23.8s1.8-7.7,1.2-11.6-2.2-7.5-4.9-10.5-6-4.6-9.9-4.9-8.9,1-12.6,3.3-5.8,4.9-7.2,8.5-1.9,7.7-1.1,11.2c1.8,7.9,13,12.4,19,6.2s.4-1.3-.6-1.3-2.5.6-3.3,1.4h.1Z"/>
      <path class="st2" d="M-374.8-93.1c2.3-1.8,6.9,0,4.5,2.8-.8,1-1.6,2-2.4,3.1,2.2,5.2,3.4,33.7-7.2,26-3.4-9.4-1.4-20.9,3.4-29.6-13.1-28.7-30.9,6.3-32,22.4-1.8,17.5-1.4,46.3,19.5,51.5,6.6.8,12.3-3.4,16.1-8.4,7.9-2.6-8.9,13.2-17.5,10.1-25-6.3-30.3-41.8-23.7-63.2,3.4-19.2,26.9-39.2,39.2-14.7h.1ZM-374.4-84.6c-3.9,5.5-4.9,12.7-4.1,19.3.2,1.1.9,5.4,2.5,3.1,3-6.9,2.9-15.1,1.5-22.4h.1Z"/>
      <path class="st2" d="M-372.2-82.7c-.6.8-1.2,1.5-1.8,2.3,5.9,33.2-15.5,22.4-2.9-2.7-9.7-21.6-23.7,4.8-24.3,17-1.4,13.3-1.1,35.2,14.8,39.2,5,.6,9.3-2.6,12.2-6.4,6.1-1.8-7.6,10.2-13.3,7.7-19.1-5-23-31.5-18-48,2.3-14.5,20.8-29.7,29.8-11.2,1.8-1.3,5.3,0,3.5,2.1h0ZM-375.3-78.4c-3,4.2-3.8,9.7-3.1,14.7.1.8.7,4.1,1.9,2.4,2.3-5.2,2.2-11.5,1.2-17.1Z"/>
    </g>
  </g>
</svg>