<?xml version="1.0" encoding="UTF-8"?>
<svg xmlns="http://www.w3.org/2000/svg" version="1.1" viewBox="0 0 175 130">
  <!-- Generator: Adobe Illustrator 29.7.1, SVG Export Plug-In . SVG Version: 2.1.1 Build 8)  -->
  <defs>
    <style>
      .st0 {
        fill: none;
      }

      .st1 {
        fill: #d8d8d8;
      }

      .st2 {
        font-family: ArialMT, Arial;
        font-size: 12px;
      }

      .st2, .st3 {
        isolation: isolate;
      }

      .st4 {
        fill: #fff;
      }

      .st5 {
        fill: #f9f9f9;
      }

      .st3, .st6 {
        display: none;
      }
    </style>
  </defs>
  <g id="Layer_1">
    <g id="background">
      <rect class="st4" x="-180.1" y="-2.9" width="160" height="160"/>
    </g>
    <g id="Layer_11" data-name="Layer_1" class="st6">
      <g class="st3">
        <text class="st2" transform="translate(-846.9 -150.7)"><tspan x="0" y="0">The Cat Code</tspan></text>
      </g>
      <g class="st3">
        <text class="st2" transform="translate(-741.3 -150.7)"><tspan x="0" y="0">Whisker Wisdom</tspan></text>
      </g>
      <g class="st3">
        <text class="st2" transform="translate(-593.3 -150.7)"><tspan x="0" y="0">Tail Talk</tspan></text>
      </g>
      <g class="st3">
        <text class="st2" transform="translate(-487.1 -150.7)"><tspan x="0" y="0">Purrception</tspan></text>
      </g>
      <g class="st3">
        <text class="st2" transform="translate(-836.2 -107.2)"><tspan x="0" y="0">&lt;&gt;theCatCode&lt;/&gt;</tspan></text>
      </g>
      <g class="st3">
        <text class="st2" transform="translate(-833.4 -76.7)"><tspan x="0" y="0">{ CatCode }</tspan></text>
      </g>
      <rect x="-639.7" y="155.2" width="250" height="150"/>
      <rect class="st1" x="-627.9" y="2.1" width="250" height="150"/>
      <rect class="st4" x="-768.3" y="155.2" width="250" height="150"/>
      <path d="M-584,214.4c-.8-33.7,33.2-51.4,60.1-32v15.2c-18.2-19.3-57.2-12.7-58,16.4-1.2,34,43.1,39,60.2,15.4v16.6c-25.3,18.6-64.5,3.1-62.4-31.6h0Z"/>
      <path class="st4" d="M-514.7,214.4c-.8-33.7,33.2-51.4,60.1-32v15.2c-18.2-19.3-57.2-12.7-58,16.4-1.2,34,43.1,39,60.2,15.4v16.6c-25.3,18.6-64.5,3.1-62.4-31.6h0Z"/>
      <g>
        <path d="M-799.2,226.9c2.3-1.8,6.9,0,4.5,2.8-.8,1-1.6,2-2.4,3.1,2.2,5.2,3.4,33.7-7.2,26-3.4-9.4-1.4-20.9,3.4-29.6-13.1-28.7-30.9,6.3-32,22.4-1.8,17.5-1.4,46.3,19.5,51.5,6.6.8,12.3-3.4,16.1-8.4,7.9-2.6-8.9,13.2-17.5,10.1-25-6.3-30.3-41.8-23.7-63.2,3.4-19.2,26.9-39.2,39.2-14.7h.1ZM-798.8,235.4c-3.9,5.5-4.9,12.7-4.1,19.3.2,1.1.9,5.4,2.5,3.1,3-6.9,2.9-15.1,1.5-22.4h0Z"/>
        <path d="M-795.2,237.2c-.6.8-1.2,1.5-1.8,2.3,5.9,33.2-15.5,22.4-2.9-2.7-9.7-21.6-23.7,4.8-24.3,17-1.4,13.3-1.1,35.2,14.8,39.2,5,.6,9.3-2.6,12.2-6.4,6.1-1.8-7.6,10.2-13.3,7.7-19.1-5-23-31.5-18-48,2.3-14.5,20.8-29.7,29.8-11.2,1.8-1.3,5.3,0,3.5,2.1h0ZM-798.3,241.6c-3,4.2-3.8,9.7-3.1,14.7,0,.8.7,4.1,1.9,2.4,2.3-5.2,2.2-11.5,1.2-17.1h0Z"/>
      </g>
      <line class="st0" x1="-617.5" y1="18.4" x2="-617.4" y2="18.6"/>
      <g>
        <path d="M-667.9-79.4c-3.5,0-6.1-3.9-7.5-6.7s-2.8-7.9-2.7-12.1,1-6.9,3-9.8,4.3-4,7.2-4.5c7.7-1.4,13.5,4.5,15.7,11.4,1,3.3,1.3,7,.5,10.4s-2.4,6.2-3.9,9-4.4,7.5-6.6,11.2-3.9,6.2-5.4,9.5,3.8.6,4.4-.7c1.5-3.2,3.4-6.2,5.2-9.3s4.4-7.2,6.5-10.9,3.6-6.6,4.5-10.3.6-7.6-.5-11.1-3.5-7.3-6.7-9.6-7.6-3-11.7-2.3-8.6,2.6-11.7,5.8-4.3,6.3-4.8,10,.1,10.1,2.2,14.6,5,8.1,9.7,8.2,2.5-.5,3.3-1.4.4-1.3-.6-1.3h-.1Z"/>
        <g>
          <path d="M-666-56.2c2.3-1.8,6.9,0,4.5,2.8-.8,1-1.6,2-2.4,3.1,2.2,5.2,3.4,33.7-7.2,26-3.4-9.4-1.4-20.9,3.4-29.6-13.1-28.7-30.9,6.3-32,22.4-1.8,17.5-1.4,46.3,19.5,51.5,6.6.8,12.3-3.4,16.1-8.4,7.9-2.6-8.9,13.2-17.5,10.1-25-6.3-30.3-41.8-23.7-63.2,3.4-19.2,26.9-39.2,39.2-14.7h0ZM-665.6-47.7c-3.9,5.5-4.9,12.7-4.1,19.3.2,1.1.9,5.4,2.5,3.1,3-6.9,2.9-15.1,1.5-22.4h.1Z"/>
          <path d="M-663.4-45.8c-.6.8-1.2,1.5-1.8,2.3,5.9,33.2-15.5,22.4-2.9-2.7-9.7-21.6-23.7,4.8-24.3,17-1.4,13.3-1.1,35.2,14.8,39.2,5,.6,9.3-2.6,12.2-6.4,6.1-1.8-7.6,10.2-13.3,7.7-19.1-5-23-31.5-18-48,2.3-14.5,20.8-29.7,29.8-11.2,1.8-1.3,5.3,0,3.5,2.1ZM-666.5-41.5c-3,4.2-3.8,9.7-3.1,14.7.1.8.7,4.1,1.9,2.4,2.3-5.2,2.2-11.5,1.2-17.1Z"/>
        </g>
        <path d="M-673-58.3l-5.4,1.1c-.4,0-.7-.3-.6-.7l1.8-5.2c.1-.4.6-.5.9-.2l3.6,4.2c.3.3.1.8-.3.9h0Z"/>
        <path d="M-654.9-56.9l-5.5-.6c-.4,0-.6-.5-.4-.8l3.3-4.5c.2-.3.7-.3.9,0l2.3,5.1c.2.4-.1.8-.5.7h0Z"/>
        <g>
          <path d="M-679.3-32.8c-3.2.4-6.3.3-9.4-.4,3.2-.4,6.3-.3,9.4.4h0Z"/>
          <path d="M-686.7-37.1c3.7.2,7.3,1,10.8,2.5-3.7-.2-7.3-1-10.8-2.5h0Z"/>
          <path d="M-675.9-31.5c-3.3,1.7-6.9,2.8-10.6,3.2,3.3-1.7,6.9-2.8,10.6-3.2h0Z"/>
        </g>
        <g>
          <path d="M-656.5-33.4c3.1-.6,6.3-.8,9.4-.4-3.1.6-6.3.8-9.4.4h0Z"/>
          <path d="M-649.1-37.6c-3.4,1.5-7,2.4-10.8,2.5,3.4-1.5,7-2.4,10.8-2.5h0Z"/>
          <path d="M-659.9-32c3.7.4,7.3,1.5,10.6,3.2-3.7-.4-7.3-1.5-10.6-3.2h0Z"/>
        </g>
      </g>
      <g>
        <path d="M-778.9-13.1c-3.5,0-6.1-3.9-7.5-6.7s-2.8-7.9-2.7-12.1,1-6.9,3-9.8,4.3-4,7.2-4.5c7.7-1.4,13.5,4.5,15.7,11.4,1,3.3,1.3,7,.5,10.4s-2.4,6.2-3.9,9-4.4,7.5-6.6,11.2-3.9,6.2-5.4,9.5,3.8.6,4.4-.7c1.5-3.2,3.4-6.2,5.2-9.3s4.4-7.2,6.5-10.9,3.6-6.6,4.5-10.3.6-7.6-.5-11.1c-1.1-3.5-3.5-7.3-6.7-9.6s-7.6-3-11.7-2.3-8.6,2.6-11.7,5.8-4.3,6.3-4.8,10,0,10.1,2.2,14.6,5,8.1,9.7,8.2,2.5-.5,3.3-1.4.4-1.3-.6-1.3h-.1Z"/>
        <path d="M-778.8,8c2.3-1.8,6.9,0,4.5,2.8-.8,1-1.6,2-2.4,3.1,2.2,5.2,3.4,33.7-7.2,26-3.4-9.4-1.4-20.9,3.4-29.6-13.1-28.7-30.9,6.3-32,22.4-1.8,17.5-1.4,46.3,19.5,51.5,6.6.8,12.3-3.4,16.1-8.4,7.9-2.6-8.9,13.2-17.5,10.1-25-6.3-30.3-41.8-23.7-63.2,3.4-19.2,26.9-39.2,39.2-14.7h.1ZM-778.4,16.5c-3.9,5.5-4.9,12.7-4.1,19.3.2,1.1.9,5.4,2.5,3.1,3-6.9,2.9-15.1,1.5-22.4h0Z"/>
        <path d="M-776.1,18.4c-.6.8-1.2,1.5-1.8,2.3,5.9,33.2-15.5,22.4-2.9-2.7-9.7-21.6-23.7,4.8-24.3,17-1.4,13.3-1.1,35.2,14.8,39.2,5,.6,9.3-2.6,12.2-6.4,6.1-1.8-7.6,10.2-13.3,7.7-19.1-5-23-31.5-18-48,2.3-14.5,20.8-29.7,29.8-11.2,1.8-1.3,5.3,0,3.5,2.1ZM-779.3,22.7c-3,4.2-3.8,9.7-3.1,14.7,0,.8.7,4.1,1.9,2.4,2.3-5.2,2.2-11.5,1.2-17.1h0Z"/>
      </g>
      <g>
        <path d="M-785.7,47.2l-5.4,1.1c-.4,0-.7-.3-.6-.7l1.8-5.2c0-.4.6-.5.9-.2l3.6,4.2c.3.3,0,.8-.3.9h0Z"/>
        <path d="M-767.6,48.7l-5.5-.6c-.4,0-.6-.5-.4-.8l3.3-4.5c.2-.3.7-.3.9,0l2.3,5.1c.2.4,0,.8-.5.7h0Z"/>
        <g>
          <path d="M-792,62.7c-3.2.4-6.3.3-9.4-.4,3.2-.4,6.3-.3,9.4.4h0Z"/>
          <path d="M-799.4,58.4c3.7.2,7.3,1,10.8,2.5-3.7-.2-7.3-1-10.8-2.5h0Z"/>
          <path d="M-788.6,64c-3.3,1.7-6.9,2.8-10.6,3.2,3.3-1.7,6.9-2.8,10.6-3.2h0Z"/>
        </g>
        <g>
          <path d="M-769.2,62.2c3.1-.6,6.3-.8,9.4-.4-3.1.6-6.3.8-9.4.4h0Z"/>
          <path d="M-761.8,57.9c-3.4,1.5-7,2.4-10.8,2.5,3.4-1.5,7-2.4,10.8-2.5h0Z"/>
          <path d="M-772.6,63.5c3.7.4,7.3,1.5,10.6,3.2-3.7-.4-7.3-1.5-10.6-3.2h0Z"/>
        </g>
      </g>
      <g>
        <path d="M-448.9-115c-3.5,0-6.1-3.9-7.5-6.7s-2.8-7.9-2.7-12.1,1-6.9,3-9.8,4.3-4,7.2-4.5c7.7-1.4,13.5,4.5,15.7,11.4,1,3.3,1.3,7,.5,10.4s-2.4,6.2-3.9,9c-1.5,2.8-4.4,7.5-6.6,11.2s-3.9,6.2-5.4,9.5,3.8.6,4.4-.7c1.5-3.2,3.4-6.2,5.2-9.3s4.4-7.2,6.5-10.9,3.6-6.6,4.5-10.3c.9-3.7.6-7.6-.5-11.1s-3.5-7.3-6.7-9.6-7.6-3-11.7-2.3-8.6,2.6-11.7,5.8-4.3,6.3-4.8,10,.1,10.1,2.2,14.6,5,8.1,9.7,8.2,2.5-.5,3.3-1.4.4-1.3-.6-1.3h-.1Z"/>
        <path d="M-447.1-102.5c2.3-1.8,6.9,0,4.5,2.8-.8,1-1.6,2-2.4,3.1,2.2,5.2,3.4,33.7-7.2,26-3.4-9.4-1.4-20.9,3.4-29.6-13.1-28.7-30.9,6.3-32,22.4-1.8,17.5-1.4,46.3,19.5,51.5,6.6.8,12.3-3.4,16.1-8.4,7.9-2.6-8.9,13.2-17.5,10.1-25-6.3-30.3-41.8-23.7-63.2,3.4-19.2,26.9-39.2,39.2-14.7h.1ZM-446.7-94c-3.9,5.5-4.9,12.7-4.1,19.3.2,1.1.9,5.4,2.5,3.1,3-6.9,2.9-15.1,1.5-22.4h.1Z"/>
        <path d="M-444.4-92.1c-.6.8-1.2,1.5-1.8,2.3,5.9,33.2-15.5,22.4-2.9-2.7-9.7-21.6-23.7,4.8-24.3,17-1.4,13.3-1.1,35.2,14.8,39.2,5,.6,9.3-2.6,12.2-6.4,6.1-1.8-7.6,10.2-13.3,7.7-19.1-5-23-31.5-18-48,2.3-14.5,20.8-29.7,29.8-11.2,1.8-1.3,5.3,0,3.5,2.1h0ZM-447.6-87.8c-3,4.2-3.8,9.7-3.1,14.7.1.8.7,4.1,1.9,2.4,2.3-5.2,2.2-11.5,1.2-17.1Z"/>
      </g>
      <path class="st6" d="M-454.9-70.2l-5.4,1.1c-.4,0-.7-.3-.6-.7l1.8-5.2c.1-.4.6-.5.9-.2l3.6,4.2c.3.3.1.8-.3.9h0Z"/>
      <path class="st6" d="M-437.8-69.8l-5.5-.6c-.4,0-.6-.5-.4-.8l3.3-4.5c.2-.3.7-.3.9,0l2.3,5.1c.2.4-.1.8-.5.7h0Z"/>
      <path d="M-446.2-52.7l-4.4.2c-.3,0-.5-.3-.4-.6l2.1-3.9c.2-.3.6-.3.7,0l2.3,3.8c.2.3,0,.6-.3.6h0Z"/>
      <g>
        <path d="M-456.8-55.6c-3.2.4-6.3.3-9.4-.4,3.2-.4,6.3-.3,9.4.4h0Z"/>
        <path d="M-464.2-59.8c3.7.2,7.3,1,10.8,2.5-3.7-.2-7.3-1-10.8-2.5h0Z"/>
        <path d="M-453.4-54.2c-3.3,1.7-6.9,2.8-10.6,3.2,3.3-1.7,6.9-2.8,10.6-3.2h0Z"/>
      </g>
      <g>
        <path d="M-440-56.1c3.1-.6,6.3-.8,9.4-.4-3.1.6-6.3.8-9.4.4h0Z"/>
        <path d="M-432.6-60.4c-3.4,1.5-7,2.4-10.8,2.5,3.4-1.5,7-2.4,10.8-2.5h0Z"/>
        <path d="M-443.4-54.7c3.7.4,7.3,1.5,10.6,3.2-3.7-.4-7.3-1.5-10.6-3.2h0Z"/>
      </g>
      <g>
        <g class="st6">
          <path d="M-497.8,30.7c-3.5,0-6.1-3.9-7.5-6.7s-2.8-7.9-2.7-12.1,1-6.9,3-9.8,4.3-4,7.2-4.5c7.7-1.4,13.5,4.5,15.7,11.4,2.2,6.9,1.3,7,.5,10.4s-2.4,6.2-3.9,9-4.4,7.5-6.6,11.2-3.9,6.2-5.4,9.5,3.8.6,4.4-.7c1.5-3.2,3.4-6.2,5.2-9.3s4.4-7.2,6.5-10.9,3.6-6.6,4.5-10.3.6-7.6-.5-11.1-3.5-7.3-6.7-9.6-7.6-3-11.7-2.3-8.6,2.6-11.7,5.8c-3.1,3.2-4.3,6.3-4.8,10-.5,3.7.1,10.1,2.2,14.6,2.1,4.5,5,8.1,9.7,8.2s2.5-.5,3.3-1.4.4-1.3-.6-1.3h-.1Z"/>
        </g>
        <path class="st4" d="M-465.8,99c-9.6,7.3-26.5,10-37.7,4.2-2.2,1-4.4,1.8-6.9,2.3,13.4,13.7,37.6,13.5,52,2.8v-16.6c-2,2.7-4.5,5.2-7.4,7.3Z"/>
        <path class="st5" d="M-460.6,44.6v15.2c-37.7-34.1-82.7,16.4-42.8,43.3-2.2,1-4.4,1.8-6.9,2.3-29.6-35,7-90.1,49.7-60.9h0Z"/>
        <path d="M-495.8,99c-55.2,33.9-77.4-54.6-15.8-49.8,3.2-4,7.2-7.3,11.8-9.4-35.6-15.2-61.1,24.2-47.5,55.5,9.5,22.8,40.9,26.5,58.9,13v-16.6c-2,2.7-4.5,5.2-7.4,7.3ZM-490.6,59.8v-11.2c-4.2.3-8.2,1.4-11.9,3.2,4,1.8,8,4.4,11.9,7.9h0Z"/>
      </g>
      <g>
        <path d="M-495.8,67.8l-5.4,1.1c-.4,0-.7-.3-.6-.7l1.8-5.2c.1-.4.6-.5.9-.2l3.6,4.2c.3.3.1.8-.3.9h0Z"/>
        <path d="M-477.7,69.2l-5.5-.6c-.4,0-.6-.5-.4-.8l3.3-4.5c.2-.3.7-.3.9,0l2.3,5.1c.2.4-.1.8-.5.7h0Z"/>
        <g>
          <path d="M-502.2,89.3c-3.2.4-6.3.3-9.4-.4,3.2-.4,6.3-.3,9.4.4h0Z"/>
          <path d="M-509.5,85c3.7.2,7.3,1,10.8,2.5-3.7-.2-7.3-1-10.8-2.5h0Z"/>
          <path d="M-498.8,90.6c-3.3,1.7-6.9,2.8-10.6,3.2,3.3-1.7,6.9-2.8,10.6-3.2h0Z"/>
        </g>
        <g>
          <path d="M-479.3,88.7c3.1-.6,6.3-.8,9.4-.4-3.1.6-6.3.8-9.4.4h0Z"/>
          <path d="M-472,84.5c-3.4,1.5-7,2.4-10.8,2.5,3.4-1.5,7-2.4,10.8-2.5h0Z"/>
          <path d="M-482.7,90.1c3.7.4,7.3,1.5,10.6,3.2-3.7-.4-7.3-1.5-10.6-3.2h0Z"/>
        </g>
      </g>
      <g>
        <rect class="st1" x="-225.1" y="77.1" width="250" height="150"/>
        <line class="st0" x1="-214.8" y1="93.4" x2="-214.6" y2="93.6"/>
        <g>
          <g class="st6">
            <path d="M-95.1,105.7c-3.5,0-6.1-3.9-7.5-6.7s-2.8-7.9-2.7-12.1,1-6.9,3-9.8,4.3-4,7.2-4.5c7.7-1.4,13.5,4.5,15.7,11.4s1.3,7,.5,10.4-2.4,6.2-3.9,9-4.4,7.5-6.6,11.2-3.9,6.2-5.4,9.5,3.8.6,4.4-.7c1.5-3.2,3.4-6.2,5.2-9.3s4.4-7.2,6.5-10.9,3.6-6.6,4.5-10.3.6-7.6-.5-11.1-3.5-7.3-6.7-9.6-7.6-3-11.7-2.3-8.6,2.6-11.7,5.8-4.3,6.3-4.8,10,0,10.1,2.2,14.6,5,8.1,9.7,8.2,2.5-.5,3.3-1.4.4-1.3-.6-1.3h0Z"/>
          </g>
          <path class="st4" d="M-63,174c-9.6,7.3-26.5,10-37.7,4.2-2.2,1-4.4,1.8-6.9,2.3,13.4,13.7,37.6,13.5,52,2.8v-16.6c-2,2.7-4.5,5.2-7.4,7.3Z"/>
          <path class="st5" d="M-57.9,119.6v15.2c-37.7-34.1-82.7,16.4-42.8,43.3-2.2,1-4.4,1.8-6.9,2.3-29.6-35,7-90.1,49.7-60.9h0Z"/>
          <path d="M-93.1,174c-55.2,33.9-77.4-54.6-15.8-49.8,3.2-4,7.2-7.3,11.8-9.4-35.6-15.2-61.1,24.2-47.5,55.5,9.5,22.8,40.9,26.5,58.9,13v-16.6c-2,2.7-4.5,5.2-7.4,7.3h0ZM-87.9,134.9v-11.2c-4.2.3-8.2,1.4-11.9,3.2,4,1.8,8,4.4,11.9,7.9h0Z"/>
        </g>
        <g>
          <path d="M-93.1,142.8l-5.4,1.1c-.4,0-.7-.3-.6-.7l1.8-5.2c0-.4.6-.5.9-.2l3.6,4.2c.3.3,0,.8-.3.9h0Z"/>
          <path d="M-75,144.3l-5.5-.6c-.4,0-.6-.5-.4-.8l3.3-4.5c.2-.3.7-.3.9,0l2.3,5.1c.2.4,0,.8-.5.7h-.1Z"/>
          <g>
            <path d="M-99.4,164.3c-3.2.4-6.3.3-9.4-.4,3.2-.4,6.3-.3,9.4.4h0Z"/>
            <path d="M-106.8,160c3.7.2,7.3,1,10.8,2.5-3.7-.2-7.3-1-10.8-2.5h0Z"/>
            <path d="M-96,165.6c-3.3,1.7-6.9,2.8-10.6,3.2,3.3-1.7,6.9-2.8,10.6-3.2h0Z"/>
          </g>
          <g>
            <path d="M-76.6,163.8c3.1-.6,6.3-.8,9.4-.4-3.1.6-6.3.8-9.4.4h0Z"/>
            <path d="M-69.2,159.5c-3.4,1.5-7,2.4-10.8,2.5,3.4-1.5,7-2.4,10.8-2.5h0Z"/>
            <path d="M-80,165.1c3.7.4,7.3,1.5,10.6,3.2-3.7-.4-7.3-1.5-10.6-3.2h0Z"/>
          </g>
        </g>
      </g>
    </g>
    <g id="Layer_2">
      <rect class="st4" x="288.3" y="150.9" width="160" height="160"/>
      <g>
        <g>
          <path d="M381.8,265.8l-4.4.2c-.3,0-.5-.3-.4-.6l2.1-3.9c.2-.3.6-.3.7,0l2.3,3.8c.2.3,0,.6-.3.6h0Z"/>
          <g>
            <path d="M371.2,263c-3.2.4-6.3.3-9.4-.4,3.2-.4,6.3-.3,9.4.4Z"/>
            <path d="M363.8,258.7c3.7.2,7.3,1,10.8,2.5-3.7-.2-7.3-1-10.8-2.5h0Z"/>
            <path d="M374.6,264.3c-3.3,1.7-6.9,2.8-10.6,3.2,3.3-1.7,6.9-2.8,10.6-3.2Z"/>
          </g>
          <g>
            <path d="M388,262.5c3.1-.6,6.3-.8,9.4-.4-3.1.6-6.3.8-9.4.4h0Z"/>
            <path d="M395.4,258.2c-3.4,1.5-7,2.4-10.8,2.5,3.4-1.5,7-2.4,10.8-2.5Z"/>
            <path d="M384.6,263.8c3.7.4,7.3,1.5,10.6,3.2-3.7-.4-7.3-1.5-10.6-3.2h0Z"/>
          </g>
        </g>
        <g>
          <path d="M373.8,188.3c-.4,2.4-2.1,4.5-4.2,5.7,0,0-.7.4-.4.2-6,3.1-11.4-3-11.1-8.9,1.9-26.9,28.6-12.3,29.4,6.7,0,10.2-6.6,19-10.4,28.1-.8,1.8,3.8.6,4.4-.7,9.1-17.3,18.5-36-2-49.5-15.2-9.8-35.4,14-21.7,26.4,7.3,4.1,18.8-1.2,20.6-9.2.2-1.4-4.4,0-4.7,1.3h0Z"/>
          <path d="M380.9,216.1c2.3-1.8,6.9,0,4.5,2.8-.8,1-1.6,2-2.4,3.1,2.2,5.2,4.4,33.7-6.2,26-3.4-9.4-2.4-20.9,2.4-29.6-13.1-28.7-30.9,6.3-32,22.4-1.8,17.5-1.4,46.3,19.5,51.5,6.6.8,12.3-3.4,16.1-8.4,7.9-2.6-8.9,13.2-17.5,10.1-25-6.3-30.3-41.8-23.7-63.2,3.4-19.2,26.9-39.2,39.2-14.7h0ZM381.3,224.5c-3.9,5.5-4.9,12.7-4.1,19.3.2,1.1.9,5.4,2.5,3.1,3-6.9,2.9-15.1,1.5-22.4h0Z"/>
          <path d="M383.6,226.5c-.6.8-.2,1.5-.8,2.3,5.9,33.2-16.5,22.4-3.9-2.7-9.7-21.6-23.7,4.8-24.3,17-1.4,13.3-1.1,35.2,14.8,39.2,5,.6,9.3-2.6,12.2-6.4,6.1-1.8-7.6,10.2-13.3,7.7-19.1-5-23-31.5-18-48,2.3-14.5,20.8-29.7,29.8-11.2,1.8-1.3,5.3,0,3.5,2.1h0ZM380.4,230.8c-3,4.2-3.8,9.7-3.1,14.7,0,.8.7,4.1,1.9,2.4,2.3-5.2,2.2-11.5,1.2-17.1Z"/>
        </g>
      </g>
      <g class="st6">
        <rect x="288.3" y="150.9" width="160" height="160"/>
        <g>
          <g>
            <path class="st4" d="M381.8,265.8l-4.4.2c-.3,0-.5-.3-.4-.6l2.1-3.9c.2-.3.6-.3.7,0l2.3,3.8c.2.3,0,.6-.3.6h0Z"/>
            <g>
              <path class="st4" d="M371.2,263c-3.2.4-6.3.3-9.4-.4,3.2-.4,6.3-.3,9.4.4Z"/>
              <path class="st4" d="M363.8,258.7c3.7.2,7.3,1,10.8,2.5-3.7-.2-7.3-1-10.8-2.5h0Z"/>
              <path class="st4" d="M374.6,264.3c-3.3,1.7-6.9,2.8-10.6,3.2,3.3-1.7,6.9-2.8,10.6-3.2Z"/>
            </g>
            <g>
              <path class="st4" d="M388,262.5c3.1-.6,6.3-.8,9.4-.4-3.1.6-6.3.8-9.4.4h0Z"/>
              <path class="st4" d="M395.4,258.2c-3.4,1.5-7,2.4-10.8,2.5,3.4-1.5,7-2.4,10.8-2.5Z"/>
              <path class="st4" d="M384.6,263.8c3.7.4,7.3,1.5,10.6,3.2-3.7-.4-7.3-1.5-10.6-3.2h0Z"/>
            </g>
          </g>
          <g>
            <path class="st4" d="M373.8,188.3c-.3,2.2-1.9,4.2-3.7,5.4-.2,0-.3.2-.5.3,0,0-.7.4-.4.2-6,3.1-11.4-3-11.1-8.9,1.9-26.9,28.6-12.3,29.4,6.7,0,10.2-6.6,19-10.4,28.1-.8,1.8,3.8.6,4.4-.7,9.1-17.3,18.5-36-2-49.5-15.2-9.8-35.4,14-21.7,26.4,7.3,4.1,18.8-1.2,20.6-9.2.2-1.4-4.4,0-4.7,1.3h0Z"/>
            <path class="st4" d="M380.9,216.1c2.3-1.8,6.9,0,4.5,2.8-.8,1-1.6,2-2.4,3.1,2.2,5.2,4.4,33.7-6.2,26-3.4-9.4-2.4-20.9,2.4-29.6-13.1-28.7-30.9,6.3-32,22.4-1.8,17.5-1.4,46.3,19.5,51.5,6.6.8,12.3-3.4,16.1-8.4,7.9-2.6-8.9,13.2-17.5,10.1-25-6.3-30.3-41.8-23.7-63.2,3.4-19.2,26.9-39.2,39.2-14.7h0ZM381.3,224.5c-3.9,5.5-4.9,12.7-4.1,19.3.2,1.1.9,5.4,2.5,3.1,3-6.9,2.9-15.1,1.5-22.4h0Z"/>
            <path class="st4" d="M383.6,226.5c-.6.8-.2,1.5-.8,2.3,5.9,33.2-16.5,22.4-3.9-2.7-9.7-21.6-23.7,4.8-24.3,17-1.4,13.3-1.1,35.2,14.8,39.2,5,.6,9.3-2.6,12.2-6.4,6.1-1.8-7.6,10.2-13.3,7.7-19.1-5-23-31.5-18-48,2.3-14.5,20.8-29.7,29.8-11.2,1.8-1.3,5.3,0,3.5,2.1h0ZM380.4,230.8c-3,4.2-3.8,9.7-3.1,14.7,0,.8.7,4.1,1.9,2.4,2.3-5.2,2.2-11.5,1.2-17.1Z"/>
          </g>
        </g>
      </g>
      <g>
        <path d="M-85.6,107.6l-4.4.2c-.3,0-.5-.3-.4-.6l2.1-3.9c.2-.3.6-.3.7,0l2.3,3.8c.2.3,0,.6-.3.6h0Z"/>
        <g>
          <path d="M-96.2,104.7c-3.2.4-6.3.3-9.4-.4,3.2-.4,6.3-.3,9.4.4h0Z"/>
          <path d="M-103.6,100.4c3.7.2,7.3,1,10.8,2.5-3.7-.2-7.3-1-10.8-2.5h0Z"/>
          <path d="M-92.9,106.1c-3.3,1.7-6.9,2.8-10.6,3.2,3.3-1.7,6.9-2.8,10.6-3.2h0Z"/>
        </g>
        <g>
          <path d="M-79.4,104.2c3.1-.6,6.3-.8,9.4-.4-3.1.6-6.3.8-9.4.4h0Z"/>
          <path d="M-72,99.9c-3.4,1.5-7,2.4-10.8,2.5,3.4-1.5,7-2.4,10.8-2.5h0Z"/>
          <path d="M-82.8,105.6c3.7.4,7.3,1.5,10.6,3.2-3.7-.4-7.3-1.5-10.6-3.2h0Z"/>
        </g>
      </g>
      <g>
        <path d="M-92.4,41.4c-.2.2-.4.2-.4.4l.3-.2c-.2.2-.2,0,0,0s-.5,0,0,0c0,0-.4,0-.2,0h-1c-1.3,0-2.6-.6-3.7-1.2-2.7-1.5-4.8-4-5.5-7s-.3-7,.8-10.1c1.1-3.1,2.7-5.2,5.1-6.7s5.9-2.2,8.9-1.5,6,2.8,7.9,5.4c4.2,5.8,4.7,13,2.6,19.6-2.6,8.2-7,15.7-10.6,23.6s3.8.6,4.4-.7c3.5-7.9,8-15.5,10.7-23.8s1.8-7.7,1.2-11.6-2.2-7.5-4.9-10.5-6-4.6-9.9-4.9-8.9,1-12.6,3.3-5.8,4.9-7.2,8.5-1.9,7.7-1.1,11.2c1.8,7.9,13,12.4,19,6.2s.4-1.3-.6-1.3-2.5.6-3.3,1.4h.1Z"/>
        <path d="M-86.5,57.8c2.3-1.8,6.9,0,4.5,2.8-.8,1-1.6,2-2.4,3.1,2.2,5.2,3.4,33.7-7.2,26-3.4-9.4-1.4-20.9,3.4-29.6-13.1-28.7-30.9,6.3-32,22.4-1.8,17.5-1.4,46.3,19.5,51.5,6.6.8,12.3-3.4,16.1-8.4,7.9-2.6-8.9,13.2-17.5,10.1-25-6.3-30.3-41.8-23.7-63.2,3.4-19.2,26.9-39.2,39.2-14.7h.1ZM-86.1,66.3c-3.9,5.5-4.9,12.7-4.1,19.3.2,1.1.9,5.4,2.5,3.1,3-6.9,2.9-15.1,1.5-22.4h.1Z"/>
        <path d="M-83.9,68.2c-.6.8-1.2,1.5-1.8,2.3,5.9,33.2-15.5,22.4-2.9-2.7-9.7-21.6-23.7,4.8-24.3,17-1.4,13.3-1.1,35.2,14.8,39.2,5,.6,9.3-2.6,12.2-6.4,6.1-1.8-7.6,10.2-13.3,7.7-19.1-5-23-31.5-18-48,2.3-14.5,20.8-29.7,29.8-11.2,1.8-1.3,5.3,0,3.5,2.1h0ZM-87,72.5c-3,4.2-3.8,9.7-3.1,14.7.1.8.7,4.1,1.9,2.4,2.3-5.2,2.2-11.5,1.2-17.1Z"/>
      </g>
    </g>
  </g>
  <g id="_x32_50_x__x_100">
    <g>
      <g class="st6">
        <g>
          <path d="M-32.4,99.1l-4.4.2c-.3,0-.5-.3-.4-.6l2.1-3.9c.2-.3.6-.3.7,0l2.3,3.8c.2.3,0,.6-.3.6h0Z"/>
          <g>
            <path d="M-43,96.3c-3.2.4-6.3.3-9.4-.4,3.2-.4,6.3-.3,9.4.4Z"/>
            <path d="M-50.4,92c3.7.2,7.3,1,10.8,2.5-3.7-.2-7.3-1-10.8-2.5h0Z"/>
            <path d="M-39.6,97.6c-3.3,1.7-6.9,2.8-10.6,3.2,3.3-1.7,6.9-2.8,10.6-3.2Z"/>
          </g>
          <g>
            <path d="M-26.2,95.8c3.1-.6,6.3-.8,9.4-.4-3.1.6-6.3.8-9.4.4h0Z"/>
            <path d="M-18.8,91.5c-3.4,1.5-7,2.4-10.8,2.5,3.4-1.5,7-2.4,10.8-2.5Z"/>
            <path d="M-29.6,97.1c3.7.4,7.3,1.5,10.6,3.2-3.7-.4-7.3-1.5-10.6-3.2h0Z"/>
          </g>
        </g>
        <g>
          <path d="M-40.4,21.6c-.4,2.4-2.1,4.5-4.2,5.7,0,0-.7.4-.4.2-6,3.1-11.4-3-11.1-8.9,1.9-26.9,28.6-12.3,29.4,6.7,0,10.2-6.6,19-10.4,28.1-.8,1.8,3.8.6,4.4-.7,9.1-17.3,18.5-36-2-49.5-15.2-9.8-35.4,14-21.7,26.4,7.3,4.1,18.8-1.2,20.6-9.2.2-1.4-4.4,0-4.7,1.3h0Z"/>
          <path d="M-33.3,49.4c2.3-1.8,6.9,0,4.5,2.8-.8,1-1.6,2-2.4,3.1,2.2,5.2,4.4,33.7-6.2,26-3.4-9.4-2.4-20.9,2.4-29.6-13.1-28.7-30.9,6.3-32,22.4-1.8,17.5-1.4,46.3,19.5,51.5,6.6.8,12.3-3.4,16.1-8.4,7.9-2.6-8.9,13.2-17.5,10.1-25-6.3-30.3-41.8-23.7-63.2,3.4-19.2,26.9-39.2,39.2-14.7h0ZM-32.9,57.8c-3.9,5.5-4.9,12.7-4.1,19.3.2,1.1.9,5.4,2.5,3.1,3-6.9,2.9-15.1,1.5-22.4h0Z"/>
          <path d="M-30.6,59.8c-.6.8-.2,1.5-.8,2.3,5.9,33.2-16.5,22.4-3.9-2.7-9.7-21.6-23.7,4.8-24.3,17-1.4,13.3-1.1,35.2,14.8,39.2,5,.6,9.3-2.6,12.2-6.4,6.1-1.8-7.6,10.2-13.3,7.7-19.1-5-23-31.5-18-48,2.3-14.5,20.8-29.7,29.8-11.2,1.8-1.3,5.3,0,3.5,2.1h0ZM-33.8,64.1c-3,4.2-3.8,9.7-3.1,14.7,0,.8.7,4.1,1.9,2.4,2.3-5.2,2.2-11.5,1.2-17.1Z"/>
        </g>
      </g>
      <path d="M42,59.4c-10.8-21.6-34.1-3.3-38.5,16.9,0,0-.6,3-.6,3-3.2,20,2.8,46,25.4,49.7,9.6,1.6,22.4-11.1,15.4-8.9-3.3,4.4-8.4,7-14.2,6.4-18.5-4.6-22.1-29.8-20.9-40.6,0-.8.5-3.7.8-5.4,2.3-13.2,20.7-40.2,31-17.1-.3.5-.5,1.1-.8,1.6-6.6-8.6-21.2-1.7-25.2,17.2-.7,3.1-1.1,6.7-1.1,10.5-.2,10.4,4.4,26.2,18.4,28.5,6.6,1.1,15.4-7.6,10.6-6.1-2.3,3-5.8,4.8-9.7,4.4-12.7-3.2-13.6-20.1-12.5-30.7.5-9.2,11-32.6,18.6-21.5-6.3,15.7-1.8,24.2,3,22,1.9-1.2,2.3-3.1,2.9-6.9.7-4,.6-10-.8-18,.7-.9,1.3-1.8,2.1-2.7,2.1-2.5-2-4-4-2.4ZM41.1,88c-1,.7-1.9-1-2.1-3.1-.4-4,0-8.4,2.5-11.7.9,4.4.8,14.6-.4,14.8Z"/>
      <path d="M37,22.4c-.4,2.4-2.1,4.5-4.2,5.7,0,0-.7.4-.4.2-6,3.1-11.4-3-11.1-8.9,1.9-26.9,29.5-10.8,30.3,8.2,0,10.2-6.5,23.5-10.3,32.6-.8,1.8,3.8.6,4.4-.7,9.1-17.3,17.5-42-3-55.5C27.5-5.8,8.3,18,22,30.4c10.1,6.5,18.8.8,20.6-7.2.2-1.4-5.4-2.1-5.7-.7l1,6-.9-6.1Z"/>
      <g>
        <path d="M24.6,102.4c4.8-.6,5.1-.9,10-.1-4.9.4-6.1.8-11,.1h1Z"/>
        <path d="M25.2,107.6c4.8-1.7,6.2-3,11.2-3.5-4.4,1.8-1.4,1.8-11.2,3.5Z"/>
        <path d="M36.4,100.3c-4.4-2-6-3-11.2-3.5,4.3,1.7,11.2,3.5,11.2,3.5Z"/>
      </g>
      <path d="M43.7,104h-4.4c-.4,0-.5-.3-.4-.6l2.2-3.8c.2-.3.6-.3.7,0l2.2,3.9c.2.4-.3.5-.3.5Z"/>
      <g>
        <path d="M58.1,102.4c-4.8-.6-5.1-.9-10-.1,4.9.4,6.1.8,11,.1h-1Z"/>
        <path d="M57.5,107.6c-4.8-1.7-6.2-3-11.2-3.5,4.4,1.8,1.4,1.8,11.2,3.5Z"/>
        <path d="M46.3,100.3c4.4-2,6-3,11.2-3.5-4.3,1.7-11.2,3.5-11.2,3.5Z"/>
      </g>
    </g>
    <g>
      <rect class="st4" x="61" y="3" width="112" height="60" rx="7.4" ry="7.4"/>
      <path d="M84.3,19.2c-.3.4-.6.8-.9,1.2.1.5.3,1,.4,1.6.3,1.4.3,2.9.2,4.4-.1,1.3-.2,3-.9,4.1-.5,1-1.8,1.4-2.6.4-.3-.5-.4-1.2-.5-1.8-.1-.7-.2-1.5-.1-2.2,0-2.7.6-5.5,2-7.8,0-.1,0-.2-.1-.3-.5-1.1-1.2-2.2-2.1-3.1-.6-.5-1.2-.9-2-.9-.6,0-1.2.1-1.7.3-2.3.9-3.7,3.4-4.7,5.5-1.1,2.4-1.8,4.9-2.2,7.5-.4,2.7-.4,5.4-.1,8,.3,2.6.8,5.3,2,7.7,1.2,2.4,3.2,4.5,5.9,4.8,2.6.3,4.9-1.4,6.4-3.4.2-.3,1.1-.2.8.2-1.8,2.5-5.9,4.3-9,3.9-3.5-.5-7.7-2.3-9.4-8.3s-.9-5.6-1-7.2c-.3-3.3,0-7.9,1-11.1.9-3,2.2-6.2,4.6-8.3,1.2-1.1,2.6-1.8,4.2-2.1,1.5-.2,2.7.2,3.9,1,1.3.8,3.5,3.4,4.2,4.8.9-.7,2.8,0,1.8,1.1ZM82.7,21.5c-.3.4-.6.9-.8,1.4-.6,1.3-.9,2.8-.9,4.2,0,.7,0,1.4.1,2.1,0,.4.4,2.2,1,1.2.4-.6.5-1.4.6-2,.1-.7.2-1.4.3-2.1.1-1.6,0-3.2-.3-4.8Z"/>
    </g>
    <path d="M126.9,19.2c-.3.4-.6.8-.9,1.2.1.5.3,1,.4,1.6.3,1.4.3,2.9.2,4.4-.1,1.3-.2,3-.9,4.1-.5,1-1.8,1.4-2.6.4-.3-.5-.4-1.2-.5-1.8-.1-.7-.2-1.5-.1-2.2,0-2.7.6-5.5,2-7.8,0-.1,0-.2-.1-.3-.5-1.1-1.2-2.2-2.1-3.1-.6-.5-1.2-.9-2-.9-.6,0-1.2.1-1.7.3-2.3.9-3.7,3.4-4.7,5.5-1.1,2.4-1.8,4.9-2.2,7.5-.4,2.7-.4,5.4-.1,8,.3,2.6.8,5.3,2,7.7,1.2,2.4,3.2,4.5,5.9,4.8,2.6.3,4.9-1.4,6.4-3.4.2-.3,1.1-.2.8.2-1.8,2.5-5.9,4.3-9,3.9-3.5-.5-7.7-2.3-9.4-8.3-.8-2.7-.9-5.6-1-7.2-.3-3.3,0-7.9,1-11.1.9-3,2.2-6.2,4.6-8.3,1.2-1.1,2.6-1.8,4.2-2.1,1.5-.2,2.7.2,3.9,1,1.3.8,3.5,3.4,4.2,4.8.9-.7,2.8,0,1.8,1.1ZM125.2,21.5c-.3.4-.6.9-.8,1.4-.6,1.3-.9,2.8-.9,4.2,0,.7,0,1.4.1,2.1,0,.4.4,2.2,1,1.2.4-.6.5-1.4.6-2,.1-.7.2-1.4.3-2.1.1-1.6,0-3.2-.3-4.8Z"/>
    <g>
      <path d="M94.4,33.2v15h-.6v-1.2c-.3.2-.8.5-1.5.8-.7.3-1.7.5-2.9.5s-1.5-.1-2.3-.3c-.8-.2-1.5-.6-2.2-1.2-.7-.6-1.2-1.3-1.7-2.2-.4-.9-.7-2.1-.7-3.5s.2-2.2.5-3.1.7-1.8,1.3-2.5,1.2-1.2,2-1.6c.8-.4,1.7-.6,2.7-.6s1.1,0,1.6.2c.5.1,1,.3,1.4.4.4.2.8.3,1.1.5.3.2.5.3.6.3v-1.5h.6ZM93.8,38.2c-.7-.8-1.5-1.3-2.5-1.7-.9-.4-1.8-.5-2.7-.5s-1.4.1-2.1.3c-.7.2-1.3.5-1.8,1-.5.4-.9,1-1.2,1.6-.3.6-.5,1.3-.5,2.1s.1,1.4.3,2c.2.6.5,1.1,1,1.6.4.4,1,.8,1.7,1,.7.3,1.5.4,2.4.4s1.4,0,2-.3c.6-.2,1.1-.4,1.5-.7.4-.3.8-.5,1.1-.8.3-.3.5-.5.7-.7v-5.3Z"/>
      <path d="M99.3,42.3c0,1.2.3,2.2,1,2.8s1.5.9,2.5.9,1,0,1.5-.2c.5-.1,1.1-.4,1.6-.7v3.2c-.3,0-.5,0-.7,0s-.5,0-.7,0c-.8,0-1.5-.1-2.2-.4-.7-.3-1.3-.6-1.8-1.1s-.9-1-1.2-1.7c-.3-.7-.5-1.5-.5-2.3v-3c0-.8,0-1.7,0-2.6s0-1.7,0-2.3c0-.4-.1-.7-.4-.9s-.6-.4-.9-.4h-1.7v-.5h2.9c0-.7-.2-1.3-.5-1.8-.2-.5-.6-.8-1.2-.8h-.5v-.6l2.8-1.4v3.3c0,.4.1.7.4.9.3.2.6.4.9.4h1.7v.5h-3v8.6Z"/>
    </g>
    <g>
      <path d="M131.2,33.9c.9,0,1.8.2,2.6.6.8.4,1.5.9,2.1,1.6s1.1,1.5,1.4,2.4.5,1.9.5,2.9-.2,2-.5,2.9-.8,1.7-1.4,2.4c-.6.7-1.3,1.2-2.1,1.6-.8.4-1.7.6-2.6.6s-1.8-.2-2.6-.6c-.8-.4-1.5-.9-2.1-1.6-.6-.7-1.1-1.5-1.4-2.4-.3-.9-.5-1.9-.5-2.9s.2-2,.5-2.9c.3-.9.8-1.7,1.4-2.4.6-.7,1.3-1.2,2.1-1.6.8-.4,1.7-.6,2.6-.6ZM131.1,46.5c.9,0,1.7-.1,2.4-.4.7-.3,1.4-.6,1.9-1.1.6-.5,1-1,1.3-1.6.3-.6.5-1.3.5-2s-.2-1.4-.5-2c-.3-.6-.8-1.2-1.3-1.6-.6-.5-1.2-.8-1.9-1.1-.7-.3-1.5-.4-2.4-.4s-1.6.1-2.4.4c-.7.3-1.4.6-2,1.1-.6.5-1,1-1.3,1.6-.3.6-.5,1.3-.5,2s.2,1.4.5,2c.3.6.8,1.2,1.3,1.6.6.5,1.2.8,2,1.1.7.3,1.5.4,2.4.4Z"/>
      <path d="M151.1,28.2v20.7h-.6v-1.2c-.3.2-.8.5-1.5.8-.7.3-1.7.5-2.9.5s-1.5-.1-2.3-.3c-.8-.2-1.5-.6-2.2-1.2-.7-.6-1.2-1.3-1.7-2.2-.4-.9-.7-2.1-.7-3.5s.2-2.2.5-3.1.7-1.8,1.3-2.5,1.2-1.2,2-1.6c.8-.4,1.7-.6,2.7-.6s1.1,0,1.6.2c.5.1,1,.3,1.4.4.4.2.8.3,1.1.5.3.2.5.3.6.3v-7.2h.6ZM150.6,38.9c-.7-.8-1.5-1.3-2.5-1.7-.9-.4-1.8-.5-2.7-.5s-1.4.1-2.1.3c-.7.2-1.3.5-1.8,1-.5.4-.9,1-1.2,1.6-.3.6-.5,1.3-.5,2.1s.1,1.4.3,2c.2.6.5,1.1,1,1.6.4.4,1,.8,1.7,1,.7.3,1.5.4,2.4.4s1.4,0,2-.3c.6-.2,1.1-.4,1.5-.7.4-.3.8-.5,1.1-.8.3-.3.5-.5.7-.7v-5.3Z"/>
      <path d="M159.2,46.7c1,0,1.9-.2,2.7-.5.8-.3,1.4-.6,2-1,.6-.4,1.2-.9,1.7-1.4v3.5c-.4.3-.8.6-1.3.8-.4.2-1,.4-1.7.6-.7.2-1.5.3-2.4.3s-1.5-.1-2.3-.3c-.8-.2-1.5-.6-2.2-1.2-.7-.6-1.2-1.3-1.7-2.2-.4-.9-.7-2.1-.7-3.5s.2-2.2.5-3.1.7-1.8,1.3-2.5,1.2-1.2,2-1.6c.8-.4,1.7-.6,2.7-.6s1.3,0,1.9.2c.6.2,1.1.4,1.5.6.4.3.8.5,1.2.9.3.3.6.7.9,1,.6.8,1,1.7,1.2,2.7l-12.3,4.6c.3.9.9,1.5,1.7,2,.8.5,1.9.8,3.3.8ZM153.9,41.7c0,.3,0,.6,0,.8,0,.3,0,.5.2.8l9.4-3.5c-.2-.6-.4-1.1-.8-1.5-.3-.4-.7-.8-1.1-1.1-.4-.3-.9-.5-1.3-.6-.5-.1-1-.2-1.5-.2s-1.2.1-1.8.3c-.6.2-1.1.6-1.6,1s-.8,1-1.1,1.7c-.3.7-.4,1.4-.4,2.3Z"/>
    </g>
  </g>
</svg>